<svg id="Layer_1" data-name="Layer 1" xmlns="http://www.w3.org/2000/svg" viewBox="0 0 32 32">
  <circle cx="16" cy="16" r="16" fill="#5c68ac"/>
  <path d="M24.55,8.49c.28,0,.55.1.79.31.24.21.36.49.36.84,0,.1-.02.22-.06.36l-4.38,12.81c-.07.21-.2.38-.38.49-.19.11-.38.18-.58.19-.2,0-.4-.06-.6-.17-.2-.11-.35-.28-.45-.51l-3.37-7.9.19.09-3.33,7.82c-.11.23-.27.4-.46.51-.19.11-.4.17-.61.17-.19-.01-.37-.08-.56-.19-.19-.11-.31-.28-.38-.49l-4.38-12.81c-.04-.14-.06-.26-.06-.36,0-.36.13-.64.38-.84.26-.21.52-.31.79-.31.23,0,.44.06.63.18.19.12.32.3.4.52l3.69,11.02h-.38l3.25-7.94c.1-.21.24-.38.42-.51.18-.13.38-.18.61-.17.23-.01.43.04.61.17.18.13.31.3.4.51l3.08,7.71-.32.17,3.67-10.96c.07-.23.21-.4.41-.52.2-.12.41-.18.64-.18Z" fill="#fff"/>
</svg>